<?xml version="1.0" encoding="UTF-8"?>
<svg version="1.1" xmlns="http://www.w3.org/2000/svg" width="500" height="500">
<path d="M0 0 C165 0 330 0 500 0 C500 165 500 330 500 500 C335 500 170 500 0 500 C0 335 0 170 0 0 Z " fill="#FF5757" transform="translate(0,0)"/>
<path d="M0 0 C0.93328125 -0.03738281 1.8665625 -0.07476562 2.828125 -0.11328125 C9.63188646 0.87817597 13.43599904 5.92717027 17.375 11.0625 C17.88426025 11.71283203 18.39352051 12.36316406 18.91821289 13.03320312 C26.40210998 22.63717463 33.70104724 32.38511825 40.75 42.3125 C44.9786742 40.90294193 46.61078442 37.79820979 49.125 34.3125 C50.19711618 32.85487963 51.27006205 31.39786923 52.34375 29.94140625 C52.900625 29.18230957 53.4575 28.42321289 54.03125 27.64111328 C56.85619069 23.81380017 59.73771848 20.03038487 62.625 16.25 C63.40883057 15.21649414 63.40883057 15.21649414 64.20849609 14.16210938 C66.73178637 10.8555628 69.29602889 7.58563308 71.9453125 4.37890625 C72.41211426 3.81244385 72.87891602 3.24598145 73.35986328 2.66235352 C76.75550685 -0.63489153 81.67263041 0.04715131 86.08203125 0.09375 C89.39103197 0.36505899 91.27980547 1.08135655 93.75 3.3125 C96.33658337 7.06308525 96.04567895 11.09190837 96.04052734 15.47412109 C96.04724457 16.29412094 96.05396179 17.11412079 96.06088257 17.95896912 C96.07987047 20.66802033 96.08378715 23.3768239 96.0859375 26.0859375 C96.09236488 27.97156882 96.0990932 29.85719914 96.10610962 31.74282837 C96.11808436 35.69543774 96.12179024 39.6479597 96.12060547 43.60058594 C96.12040227 48.66031852 96.14770441 53.71948948 96.18214989 58.77908897 C96.20440993 62.67392542 96.20844328 66.56862651 96.20738602 70.46352005 C96.20974332 72.32860881 96.21857415 74.19370123 96.23405075 76.05872726 C96.25369273 78.67024582 96.2478801 81.28055088 96.23583984 83.89208984 C96.24707886 84.65904678 96.25831787 85.42600372 96.26989746 86.21620178 C96.20951207 91.38212458 95.02970053 94.34137551 91.75 98.3125 C89.07344199 99.65077901 86.92565948 99.51828556 83.9375 99.5625 C82.89980469 99.58828125 81.86210937 99.6140625 80.79296875 99.640625 C77.35139786 99.26951851 75.51459927 98.35741005 72.75 96.3125 C71.51788052 93.84826104 71.59220092 92.16015337 71.54467773 89.40380859 C71.5147599 87.87244766 71.5147599 87.87244766 71.48423767 86.31015015 C71.46752518 85.20490997 71.45081268 84.0996698 71.43359375 82.9609375 C71.41281265 81.8317691 71.39203156 80.70260071 71.37062073 79.53921509 C71.30508665 75.92204028 71.24622226 72.30479119 71.1875 68.6875 C71.14431846 66.23957556 71.10070429 63.79165872 71.05664062 61.34375 C70.94940133 55.3334125 70.84764213 49.32300065 70.75 43.3125 C70.37746597 43.82929825 70.00493195 44.3460965 69.62110901 44.8785553 C67.91585344 47.24360118 66.20988567 49.60813246 64.50390625 51.97265625 C63.91790649 52.78561157 63.33190674 53.59856689 62.72814941 54.43615723 C49.45837715 72.82367095 49.45837715 72.82367095 44.34765625 73.74609375 C43.51105469 73.74738281 42.67445313 73.74867188 41.8125 73.75 C40.97847656 73.76933594 40.14445312 73.78867187 39.28515625 73.80859375 C32.4947067 72.47980008 28.9562982 65.79286901 25.25 60.5 C24.41662109 59.32727539 24.41662109 59.32727539 23.56640625 58.13085938 C22.51828337 56.65485574 21.47297624 55.17684486 20.43164062 53.69604492 C18.21799069 50.55843395 15.9836672 47.43589235 13.75 44.3125 C13.74413376 44.9027446 13.73826752 45.4929892 13.73222351 46.10112 C13.66824332 52.24961264 13.5838116 58.3975841 13.48754883 64.5456543 C13.45431366 66.83952967 13.42627736 69.13348654 13.40356445 71.42749023 C13.36999326 74.72675273 13.31767465 78.0252693 13.26171875 81.32421875 C13.25213387 82.86042122 13.25213387 82.86042122 13.24235535 84.42765808 C13.05662558 93.44119776 13.05662558 93.44119776 9.75 97.3125 C6.29916005 99.61305997 4.87824272 99.58260256 0.8125 99.5625 C-0.74791016 99.57023437 -0.74791016 99.57023437 -2.33984375 99.578125 C-5.25971263 99.31161348 -6.86932351 98.99548383 -9.25 97.3125 C-11.92240391 93.52094426 -11.54555373 89.29243676 -11.54052734 84.84375 C-11.54724457 83.99127686 -11.55396179 83.13880371 -11.56088257 82.26049805 C-11.57987065 79.44443933 -11.58378682 76.62861873 -11.5859375 73.8125 C-11.59236363 71.85481671 -11.59909185 69.89713439 -11.60610962 67.93945312 C-11.61808352 63.83721692 -11.6217902 59.73506495 -11.62060547 55.6328125 C-11.62040199 50.37335371 -11.64773331 45.11443353 -11.68214989 39.85510254 C-11.70437057 35.81280021 -11.70844454 31.77062865 -11.70738602 27.72827148 C-11.70974814 25.78896219 -11.71860595 23.84964962 -11.73405075 21.91040039 C-11.75361808 19.20029751 -11.74791001 16.49137129 -11.73583984 13.78125 C-11.74707886 12.97905029 -11.75831787 12.17685059 -11.76989746 11.3503418 C-11.72915179 7.7553308 -11.57567922 5.73414335 -9.34463501 2.84570312 C-6.06339384 0.44394377 -4.0401533 0.10486737 0 0 Z " fill="#FFD7C0" transform="translate(218.25,198.6875)"/>
<path d="M0 0 C1.94152911 -0.0164509 3.88300044 -0.04359454 5.82421875 -0.08203125 C20.35854011 -0.36809097 31.95074279 0.65083595 43.59130859 10.32666016 C50.4054017 17.31616556 53.83685402 25.84728032 53.93896484 35.53759766 C53.72950944 46.8040938 50.78274977 54.08653019 42.92333984 62.18994141 C33.61815787 70.70942092 23.873691 72.84202467 11.50146484 72.53759766 C10.44507813 72.5240625 9.38869141 72.51052734 8.30029297 72.49658203 C5.72096675 72.46156855 3.14274991 72.4124644 0.56396484 72.35009766 C0.58491211 72.9955957 0.60585938 73.64109375 0.62744141 74.30615234 C0.71070689 77.23730834 0.7626569 80.16821542 0.81396484 83.10009766 C0.86423828 84.62376953 0.86423828 84.62376953 0.91552734 86.17822266 C1.01476737 93.72046438 1.01476737 93.72046438 -1.32666016 96.99072266 C-6.3872199 100.25197227 -11.54153494 99.93168834 -17.43603516 99.35009766 C-21.11534243 97.25794254 -22.10652855 96.33861746 -23.43603516 92.35009766 C-23.54775176 89.62342501 -23.60370133 86.92164088 -23.61303711 84.19433594 C-23.62289391 82.94751541 -23.62289391 82.94751541 -23.63294983 81.67550659 C-23.65266687 78.92380687 -23.66434065 76.17216162 -23.67431641 73.42041016 C-23.67839193 72.48060177 -23.68246746 71.54079338 -23.68666649 70.57250595 C-23.70751845 65.60009735 -23.72182507 60.62771629 -23.73120117 55.65527344 C-23.74227573 50.51810098 -23.77669017 45.38136047 -23.81637287 40.2443409 C-23.84250405 36.29465931 -23.85088979 32.34508132 -23.85448265 28.39532089 C-23.85935611 26.50148469 -23.87099167 24.60765335 -23.88952065 22.71390152 C-23.91384231 20.06380061 -23.91296024 17.41482655 -23.90600586 14.76464844 C-23.91881592 13.98317444 -23.93162598 13.20170044 -23.94482422 12.39654541 C-23.90915164 8.66605718 -23.56863224 6.55643298 -21.53166199 3.38668823 C-16.24602017 -1.75005088 -6.99114446 0.04330694 0 0 Z " fill="#FFD7C0" transform="translate(347.43603515625,198.64990234375)"/>
<path d="M0 0 C2.375 1.625 2.375 1.625 3.375 3.625 C3.46166427 6.25102046 3.49067559 8.85084616 3.47265625 11.4765625 C3.47164917 12.16258545 3.47064209 12.8486084 3.46960449 13.55541992 C3.46436889 16.12029693 3.45040763 18.68515013 3.4375 21.25 C3.416875 26.98375 3.39625 32.7175 3.375 38.625 C15.255 38.625 27.135 38.625 39.375 38.625 C39.17749633 27.33105903 39.17749633 27.33105903 38.92456055 16.03833008 C38.90994833 14.61541625 38.89720939 13.19248143 38.88671875 11.76953125 C38.848349 10.67433167 38.848349 10.67433167 38.8092041 9.55700684 C38.80580872 5.56743023 39.21803721 3.82376293 41.72192383 0.65307617 C44.8844952 -1.76447057 46.4380321 -1.99551943 50.375 -1.875 C51.8909375 -1.85953125 51.8909375 -1.85953125 53.4375 -1.84375 C57.69692611 -1.16405434 60.35767306 0.60767306 63.375 3.625 C63.57884428 6.36932744 63.65817786 9.01315731 63.6496582 11.7590332 C63.65476913 12.59985443 63.65988007 13.44067566 63.66514587 14.30697632 C63.6790867 17.09664967 63.67808137 19.88607712 63.67578125 22.67578125 C63.67966651 24.61150708 63.68400082 26.54723207 63.68876648 28.48295593 C63.69623892 32.54587564 63.69593059 36.60870848 63.69067383 40.67163086 C63.6848863 45.87715682 63.70178791 51.08232615 63.7250185 56.28779316 C63.73975709 60.28810199 63.74062722 64.28832506 63.73750877 68.28865623 C63.7380222 70.20758964 63.74326398 72.12652783 63.75332069 74.04543495 C63.76566634 76.73145234 63.75890406 79.41677679 63.74731445 82.1027832 C63.75495819 82.89517899 63.76260193 83.68757477 63.77047729 84.50398254 C63.72709387 89.05622087 63.23516987 92.02903794 60.375 95.625 C56.95170149 97.90719901 55.53362332 97.92241163 51.5 97.9375 C50.47132812 97.95425781 49.44265625 97.97101563 48.3828125 97.98828125 C44.98232735 97.5775733 43.11602764 96.64392896 40.375 94.625 C38.84193026 91.55886053 39.25358334 88.35419216 39.27734375 84.9921875 C39.27835083 84.32582275 39.27935791 83.65945801 39.28039551 82.97290039 C39.28563045 80.48191611 39.29959171 77.99095634 39.3125 75.5 C39.3434375 67.146875 39.3434375 67.146875 39.375 58.625 C27.495 58.625 15.615 58.625 3.375 58.625 C3.53309183 69.63467342 3.53309183 69.63467342 3.73535156 80.64355469 C3.74703849 82.02798224 3.75723032 83.41242357 3.765625 84.796875 C3.78608887 85.51053223 3.80655273 86.22418945 3.82763672 86.95947266 C3.83008093 90.44735674 3.65675079 92.26502534 1.47558594 95.05175781 C-3.38628007 98.69307169 -8.74451283 98.21304872 -14.625 97.625 C-17.69865786 95.81696596 -19.05519732 94.76460536 -20.625 91.625 C-20.72861549 88.9000651 -20.77180749 86.20049632 -20.77026367 83.47509766 C-20.77362228 82.63267014 -20.7769809 81.79024261 -20.78044128 80.92228699 C-20.78996681 78.12786396 -20.79189525 75.33350076 -20.79296875 72.5390625 C-20.79618041 70.60094172 -20.79954441 68.66282119 -20.80305481 66.72470093 C-20.80905022 62.6576074 -20.81089431 58.59053514 -20.81030273 54.5234375 C-20.81020113 49.30892731 -20.82384948 44.09455335 -20.84107494 38.88007545 C-20.85218785 34.87553276 -20.85422215 30.87102306 -20.85369301 26.86646652 C-20.85487435 24.94391791 -20.8593047 23.02136847 -20.86702538 21.09883499 C-20.87681014 18.41035652 -20.87395311 15.72217454 -20.86791992 13.03369141 C-20.87353943 12.23770035 -20.87915894 11.44170929 -20.88494873 10.62159729 C-20.84581002 3.76668494 -20.84581002 3.76668494 -18.625 0.625 C-13.28144216 -3.05015441 -5.76118251 -2.18527612 0 0 Z " fill="#FFD7C0" transform="translate(29.625,200.375)"/>
<path d="M0 0 C6.21181401 3.93553854 8.60826701 9.3644592 11.6875 15.875 C12.20731445 16.94435791 12.72712891 18.01371582 13.26269531 19.11547852 C14.8564964 22.40347952 16.43008993 25.70053648 18 29 C18.88604649 30.84537502 19.77272932 32.69044468 20.66015625 34.53515625 C21.96325405 37.24797788 23.26186767 39.96258718 24.54882812 42.68310547 C27.02546217 47.91441748 29.54661125 53.11983009 32.13076782 58.29872131 C33.62102066 61.28695411 35.10112875 64.28017049 36.58117676 67.27346802 C37.31295825 68.74621562 38.04962319 70.2165478 38.79138184 71.68429565 C39.83585371 73.7522306 40.86275904 75.82809894 41.88671875 77.90625 C42.20176865 78.51892227 42.51681854 79.13159454 42.84141541 79.76283264 C44.89562373 83.98862951 45.47373436 87.32836452 45 92 C41.60883436 96.38856729 37.52147354 99.38016617 31.98046875 100.35546875 C29.875 100.5 29.875 100.5 26 100 C22.37182743 96.29418171 20.35759476 91.97544034 18.25 87.3125 C17.93417969 86.63638672 17.61835938 85.96027344 17.29296875 85.26367188 C15 80.27572037 15 80.27572037 15 78 C2.46 78.33 -10.08 78.66 -23 79 C-26.20504328 85.16070695 -26.20504328 85.16070695 -29.40185547 91.32568359 C-29.80291504 92.09219238 -30.20397461 92.85870117 -30.6171875 93.6484375 C-31.02565918 94.43395996 -31.43413086 95.21948242 -31.85498047 96.02880859 C-33 98 -33 98 -35 100 C-41.02404693 100.72704015 -44.24321206 99.76067015 -49.23828125 96.38671875 C-49.81964844 95.92910156 -50.40101563 95.47148437 -51 95 C-51.57105469 94.57332031 -52.14210938 94.14664063 -52.73046875 93.70703125 C-54.69636202 91.06366091 -54.30076548 89.2589922 -54 86 C-52.97793629 83.11048552 -51.61766824 80.42109119 -50.23046875 77.69140625 C-49.83836716 76.89623093 -49.44626556 76.1010556 -49.0422821 75.28178406 C-47.76803665 72.70323508 -46.47778652 70.13305372 -45.1875 67.5625 C-44.30681227 65.78612232 -43.42742214 64.00910075 -42.54931641 62.23144531 C-40.81938565 58.73100844 -39.08471149 55.23299463 -37.34619141 51.73681641 C-34.46588349 45.93454471 -31.65737701 40.09988674 -28.875 34.25 C-28.45226807 33.36795898 -28.02953613 32.48591797 -27.59399414 31.57714844 C-25.52363686 27.24892674 -23.49535042 22.90562544 -21.515625 18.53515625 C-21.11230957 17.65504883 -20.70899414 16.77494141 -20.29345703 15.86816406 C-19.54360443 14.22807693 -18.80405068 12.58321935 -18.07763672 10.93261719 C-14.59467022 3.34538916 -8.93459271 -2.06419901 0 0 Z " fill="#FFD7C0" transform="translate(449,199)"/>
<path d="M0 0 C6.21181401 3.93553854 8.60826701 9.3644592 11.6875 15.875 C12.20731445 16.94435791 12.72712891 18.01371582 13.26269531 19.11547852 C14.8564964 22.40347952 16.43008993 25.70053648 18 29 C18.88604649 30.84537502 19.77272932 32.69044468 20.66015625 34.53515625 C21.96325405 37.24797788 23.26186767 39.96258718 24.54882812 42.68310547 C27.02546217 47.91441748 29.54661125 53.11983009 32.13076782 58.29872131 C33.62102066 61.28695411 35.10112875 64.28017049 36.58117676 67.27346802 C37.31295825 68.74621562 38.04962319 70.2165478 38.79138184 71.68429565 C39.83585371 73.7522306 40.86275904 75.82809894 41.88671875 77.90625 C42.20176865 78.51892227 42.51681854 79.13159454 42.84141541 79.76283264 C44.89562373 83.98862951 45.47373436 87.32836452 45 92 C41.60883436 96.38856729 37.52147354 99.38016617 31.98046875 100.35546875 C29.875 100.5 29.875 100.5 26 100 C22.37182743 96.29418171 20.35759476 91.97544034 18.25 87.3125 C17.93417969 86.63638672 17.61835938 85.96027344 17.29296875 85.26367188 C15 80.27572037 15 80.27572037 15 78 C2.46 78.33 -10.08 78.66 -23 79 C-26.20504328 85.16070695 -26.20504328 85.16070695 -29.40185547 91.32568359 C-29.80291504 92.09219238 -30.20397461 92.85870117 -30.6171875 93.6484375 C-31.02565918 94.43395996 -31.43413086 95.21948242 -31.85498047 96.02880859 C-33 98 -33 98 -35 100 C-41.02404693 100.72704015 -44.24321206 99.76067015 -49.23828125 96.38671875 C-49.81964844 95.92910156 -50.40101562 95.47148437 -51 95 C-51.57105469 94.57332031 -52.14210938 94.14664063 -52.73046875 93.70703125 C-54.69636202 91.06366091 -54.30076548 89.2589922 -54 86 C-52.97793629 83.11048552 -51.61766824 80.42109119 -50.23046875 77.69140625 C-49.83836716 76.89623093 -49.44626556 76.1010556 -49.0422821 75.28178406 C-47.76803665 72.70323508 -46.47778652 70.13305372 -45.1875 67.5625 C-44.30681227 65.78612232 -43.42742214 64.00910075 -42.54931641 62.23144531 C-40.81938565 58.73100844 -39.08471149 55.23299463 -37.34619141 51.73681641 C-34.46588349 45.93454471 -31.65737701 40.09988674 -28.875 34.25 C-28.45226807 33.36795898 -28.02953613 32.48591797 -27.59399414 31.57714844 C-25.52363686 27.24892674 -23.49535042 22.90562544 -21.515625 18.53515625 C-21.11230957 17.65504883 -20.70899414 16.77494141 -20.29345703 15.86816406 C-19.54360443 14.22807693 -18.80405068 12.58321935 -18.07763672 10.93261719 C-14.59467022 3.34538916 -8.93459271 -2.06419901 0 0 Z " fill="#FFD7C0" transform="translate(154,199)"/>
<path d="M0 0 C3.155625 -0.0825 6.31125 -0.165 9.5625 -0.25 C10.5429126 -0.28641602 11.5233252 -0.32283203 12.53344727 -0.36035156 C18.57837938 -0.4363499 22.09002217 0.41268374 27 4 C29.82220955 8.23331432 29.78619823 12.02868595 29 17 C26.4404665 20.41271133 23.90102874 22.37203279 20 24 C17.70996094 24.22705078 17.70996094 24.22705078 15.234375 24.1953125 C14.43225586 24.19031738 13.63013672 24.18532227 12.80371094 24.18017578 C11.79598633 24.16196777 10.78826172 24.14375977 9.75 24.125 C6.5325 24.08375 3.315 24.0425 0 24 C0 16.08 0 8.16 0 0 Z " fill="#FF5A5A" transform="translate(348,223)"/>
<path d="M0 0 C3.16860855 2.65478014 4.50301588 5.83999806 6.1875 9.5625 C6.98220703 11.29693359 6.98220703 11.29693359 7.79296875 13.06640625 C9 16 9 16 9 18 C3.39 18 -2.22 18 -8 18 C-6.50748294 13.52244882 -4.99752948 9.77777506 -2.875 5.625 C-2.33617187 4.56539062 -1.79734375 3.50578125 -1.2421875 2.4140625 C-0.83226562 1.61742187 -0.42234375 0.82078125 0 0 Z " fill="#FF5B5B" transform="translate(444,239)"/>
<path d="M0 0 C3.16860855 2.65478014 4.50301588 5.83999806 6.1875 9.5625 C6.98220703 11.29693359 6.98220703 11.29693359 7.79296875 13.06640625 C9 16 9 16 9 18 C3.39 18 -2.22 18 -8 18 C-6.50748294 13.52244882 -4.99752948 9.77777506 -2.875 5.625 C-2.33617187 4.56539062 -1.79734375 3.50578125 -1.2421875 2.4140625 C-0.83226562 1.61742187 -0.42234375 0.82078125 0 0 Z " fill="#FF5B5B" transform="translate(149,239)"/>
</svg>
