<svg version="1.1" id="Layer_1" xmlns="http://www.w3.org/2000/svg" xmlns:xlink="http://www.w3.org/1999/xlink" x="0px" y="0px"
	 width="100%" viewBox="0 0 500 500" enable-background="new 0 0 500 500" xml:space="preserve">
<path fill="#FFD6D6" opacity="1.000000" stroke="none" 
	d="
M274.000000,501.000000 
	C182.666687,501.000000 91.833374,501.000000 1.000049,501.000000 
	C1.000032,334.333405 1.000032,167.666794 1.000016,1.000138 
	C167.666565,1.000092 334.333130,1.000092 500.999756,1.000046 
	C500.999847,167.666519 500.999847,334.333038 500.999939,500.999786 
	C425.500000,501.000000 350.000000,501.000000 274.000000,501.000000 
M16.001402,259.500000 
	C16.013544,269.492371 15.902559,279.486938 16.083694,289.476257 
	C16.193560,295.535248 18.744432,297.912781 24.737604,297.978180 
	C32.231014,298.059998 39.727818,298.090454 47.219753,297.954956 
	C52.136501,297.866058 54.520473,295.524414 54.915565,290.622772 
	C55.129131,287.973236 55.043564,285.297455 55.047226,282.633484 
	C55.059753,273.520691 55.052029,264.407928 55.052029,254.879028 
	C57.063160,255.044464 58.432034,255.157074 60.075100,255.292236 
	C60.075100,266.521851 59.986553,277.330444 60.105927,288.136780 
	C60.186813,295.458679 62.858318,297.959686 70.177269,297.994202 
	C76.672241,298.024841 83.167618,298.028687 89.662544,297.992828 
	C96.979691,297.952423 99.050980,295.881775 99.112274,288.398163 
	C99.179108,280.238159 99.135910,272.077240 99.131599,263.916718 
	C99.123604,248.761627 99.177666,233.606018 99.062248,218.451706 
	C99.018143,212.660706 96.984985,210.105377 92.140381,209.977859 
	C83.819954,209.758865 75.489159,209.872330 67.163498,209.940781 
	C63.209572,209.973282 61.026485,212.319305 60.426086,216.027390 
	C60.056595,218.309402 60.091614,220.669449 60.082298,222.995026 
	C60.047131,231.772568 60.068172,240.550354 60.068172,249.323532 
	C56.441555,250.309113 54.927227,249.666077 54.996418,246.038498 
	C55.164711,237.215149 55.113724,228.385468 55.015671,219.559845 
	C54.935547,212.348068 52.483746,209.920822 45.429874,209.865494 
	C38.768631,209.813248 32.106339,209.814011 25.445080,209.865631 
	C18.184811,209.921890 16.047379,212.081757 16.017193,219.529358 
	C15.964541,232.519379 16.001818,245.509766 16.001402,259.500000 
M155.171112,288.336273 
	C157.823517,298.002075 157.823517,298.002502 168.087158,298.003082 
	C177.252167,298.003571 186.417206,298.019623 195.582153,297.997192 
	C201.814529,297.981903 203.242783,296.254120 201.223877,290.485992 
	C192.483917,265.515381 183.614090,240.590256 174.806091,215.643433 
	C173.419464,211.716125 170.813553,209.773117 166.534225,209.832962 
	C158.537384,209.944824 150.527466,210.100571 142.542694,209.766953 
	C136.894684,209.530945 133.603760,212.007523 131.140472,216.819580 
	C123.327187,232.083038 115.272469,247.222733 107.392570,262.452423 
	C105.946182,265.247894 104.592926,268.154541 103.694725,271.158813 
	C101.052910,279.994934 102.343643,288.174469 109.480560,294.443054 
	C116.824699,300.893677 125.466988,301.793304 134.232086,297.803864 
	C142.763672,293.920715 146.145706,286.522186 145.947342,277.462250 
	C145.851089,273.066254 145.174454,268.682983 144.764465,264.335114 
	C148.070496,263.097992 149.365768,264.326599 150.021896,267.178558 
	C151.588303,273.987152 153.343369,280.752319 155.171112,288.336273 
M409.024139,232.488129 
	C403.200104,243.703232 397.285370,254.872528 391.587677,266.151428 
	C388.411469,272.438934 387.325348,279.087158 389.735199,285.947998 
	C393.111877,295.561188 402.983124,301.259918 413.635162,299.823944 
	C424.056305,298.419098 431.535095,290.530640 431.869293,279.927185 
	C432.033295,274.723450 431.263885,269.490356 430.920502,264.324677 
	C434.114624,263.043365 435.356201,264.354340 436.021454,267.182190 
	C437.924072,275.269592 440.163116,283.280884 441.928284,291.396393 
	C442.954681,296.115356 445.422668,298.120453 450.234924,298.049561 
	C460.885132,297.892639 471.539337,298.031921 482.191681,297.990234 
	C487.666779,297.968781 489.185242,296.077820 487.362640,290.864624 
	C478.586823,265.762512 469.661865,240.712555 460.804169,215.639038 
	C459.418762,211.717484 456.816467,209.776657 452.542053,209.833267 
	C444.221375,209.943451 435.894867,209.994171 427.577087,209.800095 
	C422.785370,209.688293 419.759949,211.795258 417.682220,215.918732 
	C414.988831,221.264053 412.131165,226.526596 409.024139,232.488129 
M226.474442,218.020752 
	C222.818176,215.142822 219.422241,211.819229 215.442749,209.494629 
	C209.903320,206.258835 205.151627,208.891251 205.100784,215.207977 
	C204.927780,236.704285 204.795837,258.207794 205.184006,279.698914 
	C205.387512,290.967163 214.828232,299.609375 226.013687,299.970245 
	C237.252853,300.332825 246.707825,292.423462 248.119522,281.121460 
	C249.589478,269.353088 245.139832,258.876404 238.704147,249.757446 
	C231.648270,239.759644 222.932449,230.939758 215.087189,221.484451 
	C214.119995,220.318771 214.058411,218.401672 213.577164,216.832794 
	C215.139816,217.128799 217.145996,216.904037 218.197800,217.799835 
	C231.436340,229.074982 242.338638,242.133865 248.596786,258.637756 
	C249.198837,260.225494 250.169250,261.673553 251.568375,264.321472 
	C254.538666,258.103821 256.803070,253.000946 259.372589,248.056641 
	C265.705444,235.870895 275.089508,226.203186 285.361633,217.342957 
	C286.244537,216.581406 287.968262,216.794678 289.301392,216.555099 
	C289.089417,218.012222 289.348297,219.829468 288.566895,220.851074 
	C286.966675,222.943268 284.775604,224.575699 282.884674,226.454697 
	C271.422455,237.844467 261.312286,250.277008 256.817780,266.079132 
	C255.192047,271.795166 254.621765,278.360168 255.659378,284.164215 
	C257.497589,294.446625 268.032166,300.984528 278.623596,299.882874 
	C289.337616,298.768494 297.789551,290.022034 297.914246,279.112152 
	C298.150391,258.449615 298.132538,237.781174 297.874908,217.119492 
	C297.839966,214.316727 296.485229,209.987427 294.539185,209.146057 
	C292.162109,208.118301 287.938599,209.189636 285.538361,210.841873 
	C280.637695,214.215317 275.826294,218.090775 272.051117,222.648254 
	C264.492371,231.773346 257.655151,241.496124 250.701431,250.731293 
	C245.551331,238.927002 237.274887,227.975800 226.474442,218.020752 
M387.031982,240.497375 
	C386.744019,222.294174 375.541931,210.640579 357.002930,210.082108 
	C341.861389,209.625992 326.697479,209.851715 311.543823,209.891342 
	C306.026245,209.905762 303.306946,212.197647 303.266174,217.651642 
	C303.088165,241.464401 303.070496,265.279938 303.242981,289.092712 
	C303.287201,295.200989 306.638977,297.927826 312.902618,297.990448 
	C318.730774,298.048767 324.559998,298.005676 330.388733,298.003632 
	C340.888733,297.999939 342.232697,296.690826 342.239105,286.301727 
	C342.252625,264.319061 342.190826,242.336014 342.345032,220.354416 
	C342.357513,218.575134 343.789001,216.805801 344.561096,215.031845 
	C345.451752,216.840851 347.050140,218.626190 347.111542,220.462921 
	C347.389740,228.780396 347.231293,237.112411 347.235077,245.439178 
	C347.238251,252.433578 347.165192,259.429474 347.291168,266.421753 
	C347.352264,269.811157 348.236206,272.905029 352.590210,272.759949 
	C370.121277,272.175873 386.499176,264.390900 387.031982,240.497375 
z"/>
<path fill="#FF7520" opacity="1.000000" stroke="none" 
	d="
M16.001404,259.000000 
	C16.001818,245.509766 15.964541,232.519379 16.017193,219.529358 
	C16.047379,212.081757 18.184811,209.921890 25.445080,209.865631 
	C32.106339,209.814011 38.768631,209.813248 45.429874,209.865494 
	C52.483746,209.920822 54.935547,212.348068 55.015671,219.559845 
	C55.113724,228.385468 55.164711,237.215149 54.996418,246.038498 
	C54.927227,249.666077 56.441555,250.309113 60.068172,249.323532 
	C60.068172,240.550354 60.047131,231.772568 60.082298,222.995026 
	C60.091614,220.669449 60.056595,218.309402 60.426086,216.027390 
	C61.026485,212.319305 63.209572,209.973282 67.163498,209.940781 
	C75.489159,209.872330 83.819954,209.758865 92.140381,209.977859 
	C96.984985,210.105377 99.018143,212.660706 99.062248,218.451706 
	C99.177666,233.606018 99.123604,248.761627 99.131599,263.916718 
	C99.135910,272.077240 99.179108,280.238159 99.112274,288.398163 
	C99.050980,295.881775 96.979691,297.952423 89.662544,297.992828 
	C83.167618,298.028687 76.672241,298.024841 70.177269,297.994202 
	C62.858318,297.959686 60.186813,295.458679 60.105927,288.136780 
	C59.986553,277.330444 60.075100,266.521851 60.075100,255.292236 
	C58.432034,255.157074 57.063160,255.044464 55.052029,254.879028 
	C55.052029,264.407928 55.059753,273.520691 55.047226,282.633484 
	C55.043564,285.297455 55.129131,287.973236 54.915565,290.622772 
	C54.520473,295.524414 52.136501,297.866058 47.219753,297.954956 
	C39.727818,298.090454 32.231014,298.059998 24.737604,297.978180 
	C18.744432,297.912781 16.193560,295.535248 16.083694,289.476257 
	C15.902559,279.486938 16.013544,269.492371 16.001404,259.000000 
z"/>
<path fill="#FF7620" opacity="1.000000" stroke="none" 
	d="
M155.096680,287.935669 
	C153.343369,280.752319 151.588303,273.987152 150.021896,267.178558 
	C149.365768,264.326599 148.070496,263.097992 144.764465,264.335114 
	C145.174454,268.682983 145.851089,273.066254 145.947342,277.462250 
	C146.145706,286.522186 142.763672,293.920715 134.232086,297.803864 
	C125.466988,301.793304 116.824699,300.893677 109.480560,294.443054 
	C102.343643,288.174469 101.052910,279.994934 103.694725,271.158813 
	C104.592926,268.154541 105.946182,265.247894 107.392570,262.452423 
	C115.272469,247.222733 123.327187,232.083038 131.140472,216.819580 
	C133.603760,212.007523 136.894684,209.530945 142.542694,209.766953 
	C150.527466,210.100571 158.537384,209.944824 166.534225,209.832962 
	C170.813553,209.773117 173.419464,211.716125 174.806091,215.643433 
	C183.614090,240.590256 192.483917,265.515381 201.223877,290.485992 
	C203.242783,296.254120 201.814529,297.981903 195.582153,297.997192 
	C186.417206,298.019623 177.252167,298.003571 168.087158,298.003082 
	C157.823517,298.002502 157.823517,298.002075 155.096680,287.935669 
M141.946106,255.512375 
	C142.485596,259.391388 144.816818,259.187042 147.887619,258.160187 
	C145.165848,247.155396 142.506180,236.382034 139.825882,225.613846 
	C139.667236,224.976440 139.508377,224.178650 139.058899,223.809280 
	C138.255463,223.149078 137.245743,222.444107 136.290741,222.397018 
	C135.855072,222.375534 135.027313,223.843262 134.941788,224.692383 
	C134.812164,225.978912 135.040619,227.347717 135.350571,228.624878 
	C137.463394,237.330673 139.637360,246.021622 141.946106,255.512375 
z"/>
<path fill="#FF7620" opacity="1.000000" stroke="none" 
	d="
M409.184174,232.156448 
	C412.131165,226.526596 414.988831,221.264053 417.682220,215.918732 
	C419.759949,211.795258 422.785370,209.688293 427.577087,209.800095 
	C435.894867,209.994171 444.221375,209.943451 452.542053,209.833267 
	C456.816467,209.776657 459.418762,211.717484 460.804169,215.639038 
	C469.661865,240.712555 478.586823,265.762512 487.362640,290.864624 
	C489.185242,296.077820 487.666779,297.968781 482.191681,297.990234 
	C471.539337,298.031921 460.885132,297.892639 450.234924,298.049561 
	C445.422668,298.120453 442.954681,296.115356 441.928284,291.396393 
	C440.163116,283.280884 437.924072,275.269592 436.021454,267.182190 
	C435.356201,264.354340 434.114624,263.043365 430.920502,264.324677 
	C431.263885,269.490356 432.033295,274.723450 431.869293,279.927185 
	C431.535095,290.530640 424.056305,298.419098 413.635162,299.823944 
	C402.983124,301.259918 393.111877,295.561188 389.735199,285.947998 
	C387.325348,279.087158 388.411469,272.438934 391.587677,266.151428 
	C397.285370,254.872528 403.200104,243.703232 409.184174,232.156448 
M432.143311,251.220322 
	C430.817749,245.909424 429.492828,240.598373 428.166321,235.287704 
	C427.282410,231.748962 426.540833,228.164078 425.421814,224.701202 
	C425.092529,223.682205 423.691650,223.009491 422.781891,222.178070 
	C422.142822,223.345032 421.281097,224.451248 420.940643,225.699661 
	C420.701813,226.575378 421.103638,227.662109 421.339172,228.625290 
	C423.506470,237.487808 425.864136,246.308105 427.806885,255.219086 
	C428.610901,258.906982 430.433716,259.334106 433.887299,258.221497 
	C433.361542,256.100891 432.854584,254.056000 432.143311,251.220322 
z"/>
<path fill="#FF7621" opacity="1.000000" stroke="none" 
	d="
M226.729156,218.264893 
	C237.274887,227.975800 245.551331,238.927002 250.701431,250.731293 
	C257.655151,241.496124 264.492371,231.773346 272.051117,222.648254 
	C275.826294,218.090775 280.637695,214.215317 285.538361,210.841873 
	C287.938599,209.189636 292.162109,208.118301 294.539185,209.146057 
	C296.485229,209.987427 297.839966,214.316727 297.874908,217.119492 
	C298.132538,237.781174 298.150391,258.449615 297.914246,279.112152 
	C297.789551,290.022034 289.337616,298.768494 278.623596,299.882874 
	C268.032166,300.984528 257.497589,294.446625 255.659378,284.164215 
	C254.621765,278.360168 255.192047,271.795166 256.817780,266.079132 
	C261.312286,250.277008 271.422455,237.844467 282.884674,226.454697 
	C284.775604,224.575699 286.966675,222.943268 288.566895,220.851074 
	C289.348297,219.829468 289.089417,218.012222 289.301392,216.555115 
	C287.968262,216.794678 286.244537,216.581406 285.361633,217.342957 
	C275.089508,226.203186 265.705444,235.870895 259.372589,248.056641 
	C256.803070,253.000946 254.538666,258.103821 251.568375,264.321472 
	C250.169250,261.673553 249.198837,260.225494 248.596786,258.637756 
	C242.338638,242.133865 231.436340,229.074982 218.197800,217.799835 
	C217.145996,216.904037 215.139816,217.128799 213.577164,216.832794 
	C214.058411,218.401672 214.119995,220.318771 215.087189,221.484451 
	C222.932449,230.939758 231.648270,239.759644 238.704147,249.757446 
	C245.139832,258.876404 249.589478,269.353088 248.119522,281.121460 
	C246.707825,292.423462 237.252853,300.332825 226.013687,299.970245 
	C214.828232,299.609375 205.387512,290.967163 205.184006,279.698914 
	C204.795837,258.207794 204.927780,236.704285 205.100784,215.207977 
	C205.151627,208.891251 209.903320,206.258835 215.442749,209.494629 
	C219.422241,211.819229 222.818176,215.142822 226.729156,218.264893 
z"/>
<path fill="#FF7621" opacity="1.000000" stroke="none" 
	d="
M387.021088,240.962494 
	C386.499176,264.390900 370.121277,272.175873 352.590210,272.759949 
	C348.236206,272.905029 347.352264,269.811157 347.291168,266.421753 
	C347.165192,259.429474 347.238251,252.433578 347.235077,245.439178 
	C347.231293,237.112411 347.389740,228.780396 347.111542,220.462921 
	C347.050140,218.626190 345.451752,216.840851 344.561096,215.031830 
	C343.789001,216.805801 342.357513,218.575134 342.345032,220.354416 
	C342.190826,242.336014 342.252625,264.319061 342.239105,286.301727 
	C342.232697,296.690826 340.888733,297.999939 330.388733,298.003632 
	C324.559998,298.005676 318.730774,298.048767 312.902618,297.990448 
	C306.638977,297.927826 303.287201,295.200989 303.242981,289.092712 
	C303.070496,265.279938 303.088165,241.464401 303.266174,217.651642 
	C303.306946,212.197647 306.026245,209.905762 311.543823,209.891342 
	C326.697479,209.851715 341.861389,209.625992 357.002930,210.082108 
	C375.541931,210.640579 386.744019,222.294174 387.021088,240.962494 
z"/>
<path fill="#FFD1CD" opacity="1.000000" stroke="none" 
	d="
M141.868851,255.114868 
	C139.637360,246.021622 137.463394,237.330673 135.350571,228.624878 
	C135.040619,227.347717 134.812164,225.978912 134.941788,224.692383 
	C135.027313,223.843262 135.855072,222.375534 136.290741,222.397018 
	C137.245743,222.444107 138.255463,223.149078 139.058899,223.809280 
	C139.508377,224.178650 139.667236,224.976440 139.825882,225.613846 
	C142.506180,236.382034 145.165848,247.155396 147.887619,258.160187 
	C144.816818,259.187042 142.485596,259.391388 141.868851,255.114868 
z"/>
<path fill="#FFD1CD" opacity="1.000000" stroke="none" 
	d="
M432.245453,251.615707 
	C432.854584,254.056000 433.361542,256.100891 433.887299,258.221497 
	C430.433716,259.334106 428.610901,258.906982 427.806885,255.219086 
	C425.864136,246.308105 423.506470,237.487808 421.339172,228.625290 
	C421.103638,227.662109 420.701813,226.575378 420.940643,225.699661 
	C421.281097,224.451248 422.142822,223.345032 422.781891,222.178070 
	C423.691650,223.009491 425.092529,223.682205 425.421814,224.701202 
	C426.540833,228.164078 427.282410,231.748962 428.166321,235.287704 
	C429.492828,240.598373 430.817749,245.909424 432.245453,251.615707 
z"/>
</svg>